<mxfile host="app.diagrams.net" modified="2023-02-26T13:48:29.776Z" agent="5.0 (Macintosh; Intel Mac OS X 10_15_7) AppleWebKit/537.36 (KHTML, like Gecko) Chrome/109.0.0.0 Safari/537.36" etag="yZ6GtPsk15FgDq7iQp1u" version="20.4.0" type="github">
  <diagram id="Gf4NQcPV5JxARg6MfiYW" name="第 1 页">
    <mxGraphModel dx="2381" dy="897" grid="1" gridSize="10" guides="1" tooltips="1" connect="1" arrows="1" fold="1" page="1" pageScale="1" pageWidth="827" pageHeight="1169" math="0" shadow="0">
      <root>
        <mxCell id="0" />
        <mxCell id="1" parent="0" />
        <mxCell id="EZ6cKPWOSQVe2YPvfRYL-9" value="Server" style="rounded=0;whiteSpace=wrap;html=1;verticalAlign=bottom;fillColor=#f5f5f5;fontColor=#333333;strokeColor=#666666;" vertex="1" parent="1">
          <mxGeometry x="-80" y="20" width="1160" height="810" as="geometry" />
        </mxCell>
        <mxCell id="EZ6cKPWOSQVe2YPvfRYL-1" value="Service" style="rounded=0;whiteSpace=wrap;html=1;verticalAlign=bottom;fillColor=#f8cecc;strokeColor=#b85450;" vertex="1" parent="1">
          <mxGeometry x="-40" y="50" width="1080" height="490" as="geometry" />
        </mxCell>
        <mxCell id="EZ6cKPWOSQVe2YPvfRYL-3" value="LogManager" style="rounded=0;whiteSpace=wrap;html=1;verticalAlign=bottom;fillColor=#e1d5e7;strokeColor=#9673a6;" vertex="1" parent="1">
          <mxGeometry x="290" y="70" width="730" height="430" as="geometry" />
        </mxCell>
        <mxCell id="EZ6cKPWOSQVe2YPvfRYL-6" value="Disk" style="ellipse;whiteSpace=wrap;html=1;aspect=fixed;" vertex="1" parent="1">
          <mxGeometry x="-30" y="690" width="80" height="80" as="geometry" />
        </mxCell>
        <mxCell id="EZ6cKPWOSQVe2YPvfRYL-10" value="UnifiedLog" style="rounded=0;whiteSpace=wrap;html=1;verticalAlign=bottom;fillColor=#ffe6cc;strokeColor=#d79b00;" vertex="1" parent="1">
          <mxGeometry x="310" y="80" width="370" height="300" as="geometry" />
        </mxCell>
        <mxCell id="EZ6cKPWOSQVe2YPvfRYL-11" value="UnifiedLog" style="rounded=0;whiteSpace=wrap;html=1;verticalAlign=middle;fillColor=#ffe6cc;strokeColor=#d79b00;" vertex="1" parent="1">
          <mxGeometry x="310" y="390" width="370" height="30" as="geometry" />
        </mxCell>
        <mxCell id="EZ6cKPWOSQVe2YPvfRYL-12" value="UnifiedLog" style="rounded=0;whiteSpace=wrap;html=1;verticalAlign=middle;fillColor=#ffe6cc;strokeColor=#d79b00;" vertex="1" parent="1">
          <mxGeometry x="310" y="430" width="370" height="30" as="geometry" />
        </mxCell>
        <mxCell id="EZ6cKPWOSQVe2YPvfRYL-13" value="LocalLog" style="rounded=0;whiteSpace=wrap;html=1;verticalAlign=bottom;fillColor=#d5e8d4;strokeColor=#82b366;" vertex="1" parent="1">
          <mxGeometry x="330" y="90" width="330" height="260" as="geometry" />
        </mxCell>
        <mxCell id="EZ6cKPWOSQVe2YPvfRYL-14" value="LogSegment" style="rounded=0;whiteSpace=wrap;html=1;verticalAlign=bottom;fillColor=#dae8fc;strokeColor=#6c8ebf;" vertex="1" parent="1">
          <mxGeometry x="350" y="110" width="290" height="150" as="geometry" />
        </mxCell>
        <mxCell id="EZ6cKPWOSQVe2YPvfRYL-16" value="LogSegment" style="rounded=0;whiteSpace=wrap;html=1;verticalAlign=middle;fillColor=#dae8fc;strokeColor=#6c8ebf;" vertex="1" parent="1">
          <mxGeometry x="350" y="270" width="290" height="20" as="geometry" />
        </mxCell>
        <mxCell id="EZ6cKPWOSQVe2YPvfRYL-17" value="FileRecords" style="rounded=0;whiteSpace=wrap;html=1;verticalAlign=middle;align=left;fillColor=#f5f5f5;fontColor=#333333;strokeColor=#666666;" vertex="1" parent="1">
          <mxGeometry x="360" y="120" width="260" height="30" as="geometry" />
        </mxCell>
        <mxCell id="EZ6cKPWOSQVe2YPvfRYL-18" value="FileChannel" style="rounded=0;whiteSpace=wrap;html=1;verticalAlign=bottom;fillColor=#f5f5f5;fontColor=#333333;strokeColor=#666666;" vertex="1" parent="1">
          <mxGeometry x="470" y="125" width="120" height="20" as="geometry" />
        </mxCell>
        <mxCell id="EZ6cKPWOSQVe2YPvfRYL-19" value="OffsetIndex" style="rounded=0;whiteSpace=wrap;html=1;verticalAlign=middle;align=left;fillColor=#f5f5f5;fontColor=#333333;strokeColor=#666666;" vertex="1" parent="1">
          <mxGeometry x="360" y="160" width="260" height="30" as="geometry" />
        </mxCell>
        <mxCell id="EZ6cKPWOSQVe2YPvfRYL-20" value="MappedByteBuffer" style="rounded=0;whiteSpace=wrap;html=1;verticalAlign=bottom;fillColor=#f5f5f5;fontColor=#333333;strokeColor=#666666;" vertex="1" parent="1">
          <mxGeometry x="470" y="165" width="120" height="20" as="geometry" />
        </mxCell>
        <mxCell id="EZ6cKPWOSQVe2YPvfRYL-22" value="TransactionIndex" style="rounded=0;whiteSpace=wrap;html=1;verticalAlign=middle;align=left;fillColor=#f5f5f5;fontColor=#333333;strokeColor=#666666;" vertex="1" parent="1">
          <mxGeometry x="360" y="200" width="260" height="30" as="geometry" />
        </mxCell>
        <mxCell id="EZ6cKPWOSQVe2YPvfRYL-23" value="FileChannel" style="rounded=0;whiteSpace=wrap;html=1;verticalAlign=bottom;fillColor=#f5f5f5;fontColor=#333333;strokeColor=#666666;" vertex="1" parent="1">
          <mxGeometry x="470" y="205" width="120" height="20" as="geometry" />
        </mxCell>
        <mxCell id="EZ6cKPWOSQVe2YPvfRYL-24" value="LogSegment" style="rounded=0;whiteSpace=wrap;html=1;verticalAlign=middle;fillColor=#dae8fc;strokeColor=#6c8ebf;" vertex="1" parent="1">
          <mxGeometry x="350" y="300" width="290" height="20" as="geometry" />
        </mxCell>
        <mxCell id="EZ6cKPWOSQVe2YPvfRYL-26" value="recovery-point-offset-checkpoint-cache" style="rounded=0;whiteSpace=wrap;html=1;verticalAlign=middle;fillColor=#ffe6cc;strokeColor=#d79b00;" vertex="1" parent="1">
          <mxGeometry x="710" y="80" width="280" height="30" as="geometry" />
        </mxCell>
        <mxCell id="EZ6cKPWOSQVe2YPvfRYL-27" value="log-start-offset-checkpoint" style="rounded=0;whiteSpace=wrap;html=1;verticalAlign=middle;fillColor=#ffe6cc;strokeColor=#d79b00;" vertex="1" parent="1">
          <mxGeometry x="710" y="120" width="280" height="30" as="geometry" />
        </mxCell>
        <mxCell id="EZ6cKPWOSQVe2YPvfRYL-28" value="LogCleaner" style="rounded=0;whiteSpace=wrap;html=1;verticalAlign=bottom;fillColor=#ffe6cc;strokeColor=#d79b00;" vertex="1" parent="1">
          <mxGeometry x="710" y="172.5" width="280" height="107.5" as="geometry" />
        </mxCell>
        <mxCell id="EZ6cKPWOSQVe2YPvfRYL-29" value="LogCleanerManager" style="rounded=0;whiteSpace=wrap;html=1;verticalAlign=bottom;fillColor=#d5e8d4;strokeColor=#82b366;" vertex="1" parent="1">
          <mxGeometry x="730" y="185" width="240" height="65" as="geometry" />
        </mxCell>
        <mxCell id="EZ6cKPWOSQVe2YPvfRYL-30" value="cleaner-offset-checkpoint-cache" style="rounded=0;whiteSpace=wrap;html=1;verticalAlign=middle;fillColor=#dae8fc;strokeColor=#6c8ebf;" vertex="1" parent="1">
          <mxGeometry x="750" y="200" width="200" height="20" as="geometry" />
        </mxCell>
        <mxCell id="EZ6cKPWOSQVe2YPvfRYL-32" value="PermanentQueueManager" style="rounded=0;whiteSpace=wrap;html=1;verticalAlign=bottom;fillColor=#e1d5e7;strokeColor=#9673a6;" vertex="1" parent="1">
          <mxGeometry x="-10" y="170" width="230" height="230" as="geometry" />
        </mxCell>
        <mxCell id="EZ6cKPWOSQVe2YPvfRYL-37" value="" style="rounded=0;orthogonalLoop=1;jettySize=auto;html=1;fontColor=#000000;entryX=0;entryY=0.5;entryDx=0;entryDy=0;endArrow=none;endFill=0;exitX=1;exitY=0.5;exitDx=0;exitDy=0;" edge="1" parent="1" source="EZ6cKPWOSQVe2YPvfRYL-33" target="EZ6cKPWOSQVe2YPvfRYL-10">
          <mxGeometry relative="1" as="geometry" />
        </mxCell>
        <mxCell id="EZ6cKPWOSQVe2YPvfRYL-33" value="PermanentQueue" style="rounded=0;whiteSpace=wrap;html=1;verticalAlign=middle;fillColor=#ffe6cc;strokeColor=#d79b00;" vertex="1" parent="1">
          <mxGeometry x="10" y="185" width="190" height="30" as="geometry" />
        </mxCell>
        <mxCell id="EZ6cKPWOSQVe2YPvfRYL-34" value="committed-read-offset-cache" style="rounded=0;whiteSpace=wrap;html=1;verticalAlign=middle;fillColor=#ffe6cc;strokeColor=#d79b00;" vertex="1" parent="1">
          <mxGeometry x="12.5" y="330" width="187.5" height="30" as="geometry" />
        </mxCell>
        <mxCell id="EZ6cKPWOSQVe2YPvfRYL-38" value="" style="rounded=0;orthogonalLoop=1;jettySize=auto;html=1;fontColor=#000000;entryX=0;entryY=0.5;entryDx=0;entryDy=0;exitX=1;exitY=0.5;exitDx=0;exitDy=0;endArrow=none;endFill=0;" edge="1" parent="1" source="EZ6cKPWOSQVe2YPvfRYL-35" target="EZ6cKPWOSQVe2YPvfRYL-11">
          <mxGeometry relative="1" as="geometry" />
        </mxCell>
        <mxCell id="EZ6cKPWOSQVe2YPvfRYL-35" value="PermanentQueue" style="rounded=0;whiteSpace=wrap;html=1;verticalAlign=middle;fillColor=#ffe6cc;strokeColor=#d79b00;" vertex="1" parent="1">
          <mxGeometry x="10" y="230" width="190" height="30" as="geometry" />
        </mxCell>
        <mxCell id="EZ6cKPWOSQVe2YPvfRYL-39" value="" style="rounded=0;orthogonalLoop=1;jettySize=auto;html=1;fontColor=#000000;entryX=0;entryY=0.5;entryDx=0;entryDy=0;exitX=1;exitY=0.5;exitDx=0;exitDy=0;endArrow=none;endFill=0;" edge="1" parent="1" source="EZ6cKPWOSQVe2YPvfRYL-36" target="EZ6cKPWOSQVe2YPvfRYL-12">
          <mxGeometry relative="1" as="geometry" />
        </mxCell>
        <mxCell id="EZ6cKPWOSQVe2YPvfRYL-36" value="PermanentQueue" style="rounded=0;whiteSpace=wrap;html=1;verticalAlign=middle;fillColor=#ffe6cc;strokeColor=#d79b00;" vertex="1" parent="1">
          <mxGeometry x="10" y="280" width="190" height="30" as="geometry" />
        </mxCell>
      </root>
    </mxGraphModel>
  </diagram>
</mxfile>
